<svg width="24" height="23" viewBox="0 0 24 23" fill="none" xmlns="http://www.w3.org/2000/svg">
<path d="M19 6H11V13H3V4H1V19H3V16H21V19H23V10C23 8.93913 22.5786 7.92172 21.8284 7.17157C21.0783 6.42143 20.0609 6 19 6ZM7 12C7.79565 12 8.55871 11.6839 9.12132 11.1213C9.68393 10.5587 10 9.79565 10 9C10 8.20435 9.68393 7.44129 9.12132 6.87868C8.55871 6.31607 7.79565 6 7 6C6.20435 6 5.44129 6.31607 4.87868 6.87868C4.31607 7.44129 4 8.20435 4 9C4 9.79565 4.31607 10.5587 4.87868 11.1213C5.44129 11.6839 6.20435 12 7 12Z" fill="#4A5168"/>
</svg>
