<svg width="16" height="16" viewBox="0 0 16 16" fill="none" xmlns="http://www.w3.org/2000/svg">
<path d="M15.9457 8.63188C15.8332 7.36906 15.6478 7.12313 15.5778 7.03062C15.4169 6.81687 15.1593 6.67719 14.8868 6.53062C14.8714 6.52248 14.8581 6.51086 14.8479 6.49669C14.8378 6.48252 14.831 6.46618 14.8283 6.44897C14.8255 6.43176 14.8268 6.41414 14.832 6.39751C14.8372 6.38087 14.8462 6.36568 14.8583 6.35313C14.9088 6.30195 14.9476 6.24045 14.972 6.17285C14.9965 6.10526 15.006 6.03318 14.9999 5.96156C14.9882 5.83457 14.9291 5.71662 14.8344 5.63113C14.7398 5.54563 14.6165 5.49883 14.4889 5.5H14.0013C13.9804 5.50012 13.9596 5.50148 13.9388 5.50406C13.9246 5.49789 13.9098 5.49297 13.8948 5.48938C13.606 4.87906 13.2106 4.04344 12.3911 3.63562C11.1756 3.03125 8.93653 3 8.49896 3C8.0614 3 5.82232 3.03125 4.60839 3.63469C3.7889 4.0425 3.39353 4.87813 3.10473 5.48844L3.10223 5.49344C3.08783 5.49546 3.07368 5.49902 3.06004 5.50406C3.0393 5.50148 3.01843 5.50012 2.99753 5.5H2.50902C2.38147 5.49883 2.25813 5.54563 2.16348 5.63113C2.06882 5.71662 2.00976 5.83457 1.99801 5.96156C1.99246 6.03301 2.0024 6.10482 2.02716 6.17208C2.05192 6.23933 2.09091 6.30045 2.14147 6.35125C2.15356 6.3638 2.16257 6.379 2.16779 6.39563C2.17301 6.41226 2.17429 6.42988 2.17153 6.44709C2.16877 6.46431 2.16205 6.48064 2.1519 6.49481C2.14174 6.50898 2.12844 6.5206 2.11302 6.52875C1.84048 6.67625 1.5817 6.81594 1.42199 7.02875C1.35198 7.1225 1.16695 7.36719 1.05412 8.63C0.99161 9.34063 0.982233 10.0763 1.0313 10.55C1.13413 11.5344 1.32697 12.1294 1.3351 12.1541C1.36469 12.2439 1.41916 12.3235 1.49219 12.3836C1.56521 12.4438 1.6538 12.4819 1.74766 12.4937V12.5C1.74766 12.6326 1.80034 12.7598 1.89413 12.8536C1.98791 12.9473 2.1151 13 2.24773 13H3.99799C4.13062 13 4.25781 12.9473 4.35159 12.8536C4.44538 12.7598 4.49806 12.6326 4.49806 12.5C4.76716 12.5 4.95438 12.4519 5.15285 12.4006C5.43939 12.3235 5.73227 12.2721 6.02798 12.2472C6.98155 12.1562 7.92982 12.125 8.49896 12.125C9.05655 12.125 10.0467 12.1562 11.0018 12.2472C11.2987 12.2721 11.5928 12.3237 11.8804 12.4012C12.0704 12.45 12.2508 12.495 12.5005 12.4997C12.5005 12.6323 12.5532 12.7595 12.647 12.8532C12.7407 12.947 12.8679 12.9997 13.0006 12.9997H14.7508C14.8834 12.9997 15.0106 12.947 15.1044 12.8532C15.1982 12.7595 15.2509 12.6323 15.2509 12.4997V12.4959C15.345 12.4844 15.4338 12.4463 15.5071 12.3861C15.5804 12.326 15.635 12.2463 15.6647 12.1562C15.6728 12.1316 15.8657 11.5366 15.9685 10.5522C16.0176 10.0781 16.0088 9.34375 15.9457 8.63188ZM4.00862 5.91594C4.25865 5.38469 4.54463 4.78344 5.05377 4.53C5.7895 4.16375 7.31441 3.99875 8.49896 3.99875C9.68351 3.99875 11.2084 4.1625 11.9442 4.53C12.4533 4.78344 12.738 5.385 12.9893 5.91594L13.0206 5.98375C13.0388 6.02236 13.0469 6.065 13.044 6.10761C13.0411 6.15023 13.0274 6.19139 13.0041 6.22718C12.9808 6.26296 12.9487 6.29218 12.9108 6.31204C12.873 6.3319 12.8307 6.34174 12.788 6.34062C11.7494 6.3125 9.56162 6.2225 8.49896 6.2225C7.43631 6.2225 5.24849 6.31469 4.20833 6.34281C4.16563 6.34393 4.12335 6.33409 4.08553 6.31423C4.04771 6.29437 4.01561 6.26515 3.9923 6.22936C3.96898 6.19358 3.95522 6.15241 3.95233 6.1098C3.94944 6.06719 3.95752 6.02454 3.9758 5.98594C3.98674 5.96281 3.9983 5.93937 4.00862 5.91594ZM4.38148 8.40438C3.84384 8.46909 3.30276 8.50102 2.76124 8.5C2.42995 8.5 2.08833 8.40625 2.02489 8.11125C1.98144 7.91281 1.98613 7.80125 2.00957 7.68906C2.02926 7.59375 2.06052 7.52437 2.21679 7.5C2.6231 7.4375 2.85032 7.51594 3.51542 7.71187C3.95642 7.84156 4.27459 8.01437 4.45587 8.15125C4.54682 8.21875 4.49838 8.395 4.38148 8.40438ZM11.3006 10.9669C10.8893 11.0138 10.0667 10.9966 8.50834 10.9966C6.94999 10.9966 6.12768 11.0138 5.71637 10.9669C5.29193 10.9197 4.75091 10.5184 5.12034 10.1609C5.36632 9.92531 5.94015 9.74906 6.70433 9.65C7.4685 9.55094 7.79199 9.5 8.50522 9.5C9.21844 9.5 9.50911 9.53125 10.3061 9.65031C11.1031 9.76937 11.7054 9.94781 11.8901 10.1613C12.227 10.5438 11.7248 10.9172 11.3006 10.9688V10.9669ZM14.973 8.11094C14.9105 8.40719 14.5667 8.49969 14.2367 8.49969C13.6848 8.49981 13.1334 8.46788 12.5852 8.40406C12.4896 8.395 12.4452 8.22719 12.5421 8.15094C12.7205 8.01062 13.0421 7.84125 13.4825 7.71156C14.1476 7.51562 14.5311 7.43719 14.8605 7.5025C14.9408 7.51844 14.9834 7.60469 14.9884 7.65875C15.0104 7.80928 15.0052 7.96255 14.973 8.11125V8.11094Z" fill="#3B82F6"/>
</svg>
