<svg width="40" height="40" viewBox="0 0 40 40" fill="none" xmlns="http://www.w3.org/2000/svg">
<path d="M18.75 13.0784C17.19 13.505 16.25 14.7034 16.25 15.8334C16.25 16.9634 17.19 18.1617 18.75 18.5867V13.0784ZM21.25 21.4134V26.92C22.81 26.495 23.75 25.2967 23.75 24.1667C23.75 23.0367 22.81 21.8384 21.25 21.4134Z" fill="#10B981"/>
<path fill-rule="evenodd" clip-rule="evenodd" d="M36.6666 19.9999C36.6666 29.2049 29.2049 36.6666 19.9999 36.6666C10.7949 36.6666 3.33325 29.2049 3.33325 19.9999C3.33325 10.7949 10.7949 3.33325 19.9999 3.33325C29.2049 3.33325 36.6666 10.7949 36.6666 19.9999ZM19.9999 8.74992C20.3314 8.74992 20.6494 8.88161 20.8838 9.11603C21.1182 9.35046 21.2499 9.6684 21.2499 9.99992V10.5283C23.9666 11.0149 26.2499 13.0566 26.2499 15.8333C26.2499 16.1648 26.1182 16.4827 25.8838 16.7171C25.6494 16.9516 25.3314 17.0833 24.9999 17.0833C24.6684 17.0833 24.3505 16.9516 24.116 16.7171C23.8816 16.4827 23.7499 16.1648 23.7499 15.8333C23.7499 14.7033 22.8099 13.5049 21.2499 13.0783V18.8616C23.9666 19.3483 26.2499 21.3899 26.2499 24.1666C26.2499 26.9433 23.9666 28.9849 21.2499 29.4716V29.9999C21.2499 30.3314 21.1182 30.6494 20.8838 30.8838C20.6494 31.1182 20.3314 31.2499 19.9999 31.2499C19.6684 31.2499 19.3505 31.1182 19.116 30.8838C18.8816 30.6494 18.7499 30.3314 18.7499 29.9999V29.4716C16.0333 28.9849 13.7499 26.9433 13.7499 24.1666C13.7499 23.8351 13.8816 23.5171 14.116 23.2827C14.3505 23.0483 14.6684 22.9166 14.9999 22.9166C15.3314 22.9166 15.6494 23.0483 15.8838 23.2827C16.1182 23.5171 16.2499 23.8351 16.2499 24.1666C16.2499 25.2966 17.1899 26.4949 18.7499 26.9199V21.1383C16.0333 20.6516 13.7499 18.6099 13.7499 15.8333C13.7499 13.0566 16.0333 11.0149 18.7499 10.5283V9.99992C18.7499 9.6684 18.8816 9.35046 19.116 9.11603C19.3505 8.88161 19.6684 8.74992 19.9999 8.74992Z" fill="#10B981"/>
</svg>
