<svg width="17" height="16" viewBox="0 0 17 16" fill="none" xmlns="http://www.w3.org/2000/svg">
<path d="M15.9435 8.63188C15.831 7.36906 15.6457 7.12313 15.5757 7.03062C15.4147 6.81687 15.1572 6.67719 14.8847 6.53062C14.8693 6.52248 14.856 6.51086 14.8459 6.49669C14.8357 6.48252 14.829 6.46618 14.8262 6.44897C14.8235 6.43176 14.8248 6.41414 14.83 6.39751C14.8352 6.38087 14.8442 6.36568 14.8563 6.35313C14.9068 6.30195 14.9455 6.24045 14.97 6.17285C14.9944 6.10526 15.0039 6.03318 14.9979 5.96156C14.9861 5.83457 14.9271 5.71662 14.8324 5.63113C14.7378 5.54563 14.6145 5.49883 14.4869 5.5H13.9994C13.9785 5.50012 13.9577 5.50148 13.9369 5.50406C13.9227 5.49789 13.9079 5.49297 13.8929 5.48938C13.6041 4.87906 13.2088 4.04344 12.3894 3.63562C11.1741 3.03125 8.93536 3 8.49786 3C8.06036 3 5.82161 3.03125 4.60786 3.63469C3.78849 4.0425 3.39317 4.87813 3.10442 5.48844L3.10192 5.49344C3.08752 5.49546 3.07338 5.49902 3.05974 5.50406C3.039 5.50148 3.01813 5.50012 2.99724 5.5H2.5088C2.38126 5.49883 2.25795 5.54563 2.16331 5.63113C2.06867 5.71662 2.00961 5.83457 1.99786 5.96156C1.99231 6.03301 2.00225 6.10482 2.02701 6.17208C2.05176 6.23933 2.09075 6.30045 2.1413 6.35125C2.15339 6.3638 2.1624 6.379 2.16762 6.39563C2.17284 6.41226 2.17412 6.42988 2.17136 6.44709C2.1686 6.46431 2.16188 6.48064 2.15173 6.49481C2.14158 6.50898 2.12827 6.5206 2.11286 6.52875C1.84036 6.67625 1.58161 6.81594 1.42192 7.02875C1.35192 7.1225 1.16692 7.36719 1.05411 8.63C0.991611 9.34063 0.982236 10.0763 1.0313 10.55C1.13411 11.5344 1.32692 12.1294 1.33505 12.1541C1.36464 12.2439 1.4191 12.3235 1.49211 12.3836C1.56513 12.4438 1.6537 12.4819 1.74755 12.4937V12.5C1.74755 12.6326 1.80023 12.7598 1.89399 12.8536C1.98776 12.9473 2.11494 13 2.24755 13H3.99755C4.13016 13 4.25733 12.9473 4.3511 12.8536C4.44487 12.7598 4.49755 12.6326 4.49755 12.5C4.76661 12.5 4.9538 12.4519 5.15224 12.4006C5.43874 12.3235 5.73157 12.2721 6.02724 12.2472C6.98067 12.1562 7.9288 12.125 8.49786 12.125C9.05536 12.125 10.0454 12.1562 11.0004 12.2472C11.2972 12.2721 11.5912 12.3237 11.8788 12.4012C12.0688 12.45 12.2491 12.495 12.4988 12.4997C12.4988 12.6323 12.5515 12.7595 12.6452 12.8532C12.739 12.947 12.8662 12.9997 12.9988 12.9997H14.7488C14.8814 12.9997 15.0086 12.947 15.1024 12.8532C15.1961 12.7595 15.2488 12.6323 15.2488 12.4997V12.4959C15.3429 12.4844 15.4317 12.4463 15.505 12.3861C15.5782 12.326 15.6329 12.2463 15.6625 12.1562C15.6707 12.1316 15.8635 11.5366 15.9663 10.5522C16.0154 10.0781 16.0066 9.34375 15.9435 8.63188ZM4.00817 5.91594C4.25817 5.38469 4.54411 4.78344 5.05317 4.53C5.7888 4.16375 7.31349 3.99875 8.49786 3.99875C9.68224 3.99875 11.2069 4.1625 11.9425 4.53C12.4516 4.78344 12.7363 5.385 12.9875 5.91594L13.0188 5.98375C13.0371 6.02236 13.0452 6.065 13.0423 6.10761C13.0394 6.15023 13.0256 6.19139 13.0023 6.22718C12.979 6.26296 12.9469 6.29218 12.9091 6.31204C12.8713 6.3319 12.829 6.34174 12.7863 6.34062C11.7479 6.3125 9.56036 6.2225 8.49786 6.2225C7.43536 6.2225 5.24786 6.31469 4.20786 6.34281C4.16516 6.34393 4.12289 6.33409 4.08508 6.31423C4.04727 6.29437 4.01517 6.26515 3.99186 6.22936C3.96854 6.19358 3.95478 6.15241 3.9519 6.1098C3.94901 6.06719 3.95709 6.02454 3.97536 5.98594C3.9863 5.96281 3.99786 5.93937 4.00817 5.91594ZM4.38099 8.40438C3.84343 8.46909 3.30243 8.50102 2.76099 8.5C2.42974 8.5 2.08817 8.40625 2.02474 8.11125C1.9813 7.91281 1.98599 7.80125 2.00942 7.68906C2.02911 7.59375 2.06036 7.52437 2.21661 7.5C2.62286 7.4375 2.85005 7.51594 3.51505 7.71187C3.95599 7.84156 4.27411 8.01437 4.45536 8.15125C4.5463 8.21875 4.49786 8.395 4.38099 8.40438ZM11.2991 10.9669C10.8879 11.0138 10.0654 10.9966 8.50724 10.9966C6.94911 10.9966 6.12692 11.0138 5.71567 10.9669C5.2913 10.9197 4.75036 10.5184 5.11974 10.1609C5.36567 9.92531 5.93942 9.74906 6.70349 9.65C7.46755 9.55094 7.79099 9.5 8.50411 9.5C9.21724 9.5 9.50786 9.53125 10.3047 9.65031C11.1016 9.76937 11.7038 9.94781 11.8885 10.1613C12.2254 10.5438 11.7232 10.9172 11.2991 10.9688V10.9669ZM14.971 8.11094C14.9085 8.40719 14.5647 8.49969 14.2347 8.49969C13.6829 8.49981 13.1316 8.46788 12.5835 8.40406C12.4879 8.395 12.4435 8.22719 12.5404 8.15094C12.7188 8.01062 13.0404 7.84125 13.4807 7.71156C14.1457 7.51562 14.5291 7.43719 14.8585 7.5025C14.9388 7.51844 14.9813 7.60469 14.9863 7.65875C15.0084 7.80928 15.0032 7.96255 14.971 8.11125V8.11094Z" fill="#4A5168"/>
</svg>
