<svg width="24" height="24" viewBox="0 0 24 24" fill="none" xmlns="http://www.w3.org/2000/svg">
<path d="M8 1.875C8 1.53 8.28 1.25 8.625 1.25H15.375C15.5408 1.25 15.6997 1.31585 15.8169 1.43306C15.9342 1.55027 16 1.70924 16 1.875C16 2.04076 15.9342 2.19973 15.8169 2.31694C15.6997 2.43415 15.5408 2.5 15.375 2.5H14.75V3.5H16.875C17.7038 3.5 18.4987 3.82924 19.0847 4.41529C19.6708 5.00134 20 5.7962 20 6.625V17.875C20 18.7038 19.6708 19.4987 19.0847 20.0847C18.4987 20.6708 17.7038 21 16.875 21H16.7375C16.7455 21.04 16.7497 21.0817 16.75 21.125V21.875C16.75 22.0408 16.6842 22.1997 16.5669 22.3169C16.4497 22.4342 16.2908 22.5 16.125 22.5C15.9592 22.5 15.8003 22.4342 15.6831 22.3169C15.5658 22.1997 15.5 22.0408 15.5 21.875V21.125C15.5 21.0817 15.5042 21.04 15.5125 21H8.2375C8.2455 21.04 8.24967 21.0817 8.25 21.125V21.875C8.25 22.0408 8.18415 22.1997 8.06694 22.3169C7.94973 22.4342 7.79076 22.5 7.625 22.5C7.45924 22.5 7.30027 22.4342 7.18306 22.3169C7.06585 22.1997 7 22.0408 7 21.875V21.125C7 21.0817 7.00433 21.0393 7.013 20.998C6.20411 20.969 5.43803 20.6273 4.87604 20.0448C4.31405 19.4622 4 18.6844 4 17.875V6.625C4 5.7962 4.32924 5.00134 4.91529 4.41529C5.50134 3.82924 6.2962 3.5 7.125 3.5H9V2.5H8.625C8.28 2.5 8 2.22 8 1.875ZM10.25 2.5V3.5H13.5V2.5H10.25ZM8.125 9C7.95924 9 7.80027 9.06585 7.68306 9.18306C7.56585 9.30027 7.5 9.45924 7.5 9.625C7.5 9.79076 7.56585 9.94973 7.68306 10.0669C7.80027 10.1842 7.95924 10.25 8.125 10.25H15.875C16.0408 10.25 16.1997 10.1842 16.3169 10.0669C16.4342 9.94973 16.5 9.79076 16.5 9.625C16.5 9.45924 16.4342 9.30027 16.3169 9.18306C16.1997 9.06585 16.0408 9 15.875 9H8.125Z" fill="#CC3300"/>
</svg>
