<svg width="24" height="24" viewBox="0 0 24 24" fill="none" xmlns="http://www.w3.org/2000/svg">
<path d="M6.50348 2.75H11.9785C12.5047 2.75027 13.0092 2.95945 13.3813 3.33157C13.7533 3.70369 13.9623 4.20831 13.9625 4.7345V21.25H4.51898V4.7345C4.51911 4.20822 4.72824 3.70353 5.10037 3.33139C5.47251 2.95926 5.9772 2.75013 6.50348 2.75Z" stroke="#CC3300" stroke-width="0.5" stroke-linecap="round" stroke-linejoin="round"/>
<path d="M3.16248 21.25H15.319M13.9625 11.155H16.296C16.676 11.155 16.985 11.464 16.985 11.844V17.042C16.985 17.4225 17.2935 17.731 17.6735 17.731H19.019C19.399 17.731 19.708 17.4225 19.708 17.042V5.674C19.708 5.294 19.3995 4.9855 19.019 4.9855H16.5215M6.16548 4.5655H12.3165V9.2195H6.16548V4.5655Z" stroke="#CC3300" stroke-width="0.5" stroke-linecap="round" stroke-linejoin="round"/>
<path d="M19.708 6.376H20.838V8.6355H19.708V6.376Z" stroke="#CC3300" stroke-width="0.5" stroke-linecap="round" stroke-linejoin="round"/>
</svg>
