<svg width="24" height="24" viewBox="0 0 24 24" fill="none" xmlns="http://www.w3.org/2000/svg">
<path d="M17 3.34C18.5202 4.21769 19.7826 5.48008 20.6603 7.00028C21.538 8.52049 22 10.2449 22 12.0003C22 13.7557 21.5379 15.4801 20.6602 17.0003C19.7825 18.5205 18.5201 19.7829 16.9999 20.6606C15.4797 21.5382 13.7552 22.0003 11.9998 22.0003C10.2445 22.0002 8.52002 21.5381 6.99984 20.6604C5.47965 19.7827 4.21729 18.5203 3.33963 17.0001C2.46198 15.4798 1.99996 13.7554 2 12L2.005 11.676C2.061 9.94899 2.56355 8.26596 3.46364 6.79099C4.36373 5.31602 5.63065 4.09945 7.14089 3.25988C8.65113 2.42031 10.3531 1.9864 12.081 2.00044C13.8089 2.01448 15.5036 2.476 17 3.34ZM12 6C11.7348 6 11.4804 6.10536 11.2929 6.29289C11.1054 6.48043 11 6.73478 11 7C10.2044 7 9.44129 7.31607 8.87868 7.87868C8.31607 8.44129 8 9.20435 8 10C8 10.7956 8.31607 11.5587 8.87868 12.1213C9.44129 12.6839 10.2044 13 11 13V15C10.8342 15.0092 10.6686 14.9777 10.5177 14.9084C10.3667 14.839 10.235 14.7338 10.134 14.602L10.066 14.501C9.92918 14.2804 9.71191 14.1216 9.46014 14.0582C9.20836 13.9949 8.94182 14.0319 8.71686 14.1615C8.49191 14.2912 8.32619 14.5032 8.25474 14.7528C8.18329 15.0024 8.21171 15.27 8.334 15.499C8.58924 15.9417 8.95331 16.3118 9.3917 16.5743C9.8301 16.8368 10.3283 16.983 10.839 16.999H11C10.9998 17.2441 11.0896 17.4808 11.2524 17.664C11.4152 17.8472 11.6396 17.9643 11.883 17.993L12 18C12.2652 18 12.5196 17.8946 12.7071 17.7071C12.8946 17.5196 13 17.2652 13 17L13.176 16.995C13.9556 16.9499 14.6869 16.6027 15.2145 16.027C15.7422 15.4513 16.0245 14.6925 16.0016 13.912C15.9787 13.1314 15.6523 12.3905 15.0918 11.8468C14.5313 11.303 13.7809 10.9992 13 11V9C13.358 8.988 13.671 9.14 13.866 9.398L13.934 9.499C14.0708 9.71965 14.2881 9.87844 14.5399 9.94179C14.7916 10.0051 15.0582 9.96809 15.2831 9.83847C15.5081 9.70885 15.6738 9.49682 15.7453 9.24722C15.8167 8.99762 15.7883 8.73002 15.666 8.501C15.4109 8.05815 15.0469 7.68782 14.6085 7.42513C14.1701 7.16244 13.6718 7.0161 13.161 7H13C13 6.73478 12.8946 6.48043 12.7071 6.29289C12.5196 6.10536 12.2652 6 12 6ZM13 13C13.2652 13 13.5196 13.1054 13.7071 13.2929C13.8946 13.4804 14 13.7348 14 14C14 14.2652 13.8946 14.5196 13.7071 14.7071C13.5196 14.8946 13.2652 15 13 15V13ZM11 9V11C10.7348 11 10.4804 10.8946 10.2929 10.7071C10.1054 10.5196 10 10.2652 10 10C10 9.73478 10.1054 9.48043 10.2929 9.29289C10.4804 9.10536 10.7348 9 11 9Z" fill="#FFCD29"/>
</svg>
