<svg width="24" height="24" viewBox="0 0 24 24" fill="none" xmlns="http://www.w3.org/2000/svg">
<path d="M12.267 2.142H9.233M10.75 2.142V4.742M4.928 3.925L3.856 4.997M3.856 4.997L2.783 6.07M3.856 4.997L5.694 6.836M1 10.375V13.408M1 11.892H3.6M2.783 17.713L3.856 18.786M3.856 18.786L4.928 19.858M3.856 18.786L5.694 16.947M18.717 6.07L17.644 4.997M17.644 4.997L16.572 3.925M17.644 4.997L15.806 6.836M9.233 11.242C9.43222 11.242 9.62948 11.2028 9.81353 11.1265C9.99758 11.0503 10.1648 10.9385 10.3057 10.7977C10.4465 10.6568 10.5583 10.4896 10.6345 10.3055C10.7108 10.1215 10.75 9.92421 10.75 9.725C10.75 9.52578 10.7108 9.32852 10.6345 9.14447C10.5583 8.96042 10.4465 8.79318 10.3057 8.65232C10.1648 8.51145 9.99758 8.39971 9.81353 8.32347C9.62948 8.24724 9.43222 8.208 9.233 8.208C8.83067 8.208 8.44481 8.36782 8.16032 8.65232C7.87583 8.93681 7.716 9.32267 7.716 9.725C7.716 10.1273 7.87583 10.5132 8.16032 10.7977C8.44481 11.0822 8.83067 11.242 9.233 11.242Z" stroke="#CC3300" stroke-width="1.5" stroke-linecap="round" stroke-linejoin="round"/>
<path d="M17.606 9.858C17.2543 8.66975 16.5999 7.59331 15.7068 6.73422C14.8138 5.87513 13.7127 5.2629 12.5118 4.95756C11.3108 4.65222 10.051 4.66425 8.85612 4.99249C7.66118 5.32072 6.57207 5.95388 5.69558 6.82987C4.8191 7.70587 4.18533 8.79462 3.85642 9.98937C3.52752 11.1841 3.51477 12.4438 3.81944 13.645C4.1241 14.8461 4.73572 15.9475 5.5943 16.841C6.45289 17.7346 7.52897 18.3897 8.71701 18.742M12 21.858L12.3 20.673C12.5652 19.6159 13.176 18.6777 14.0353 18.0074C14.8946 17.3371 15.9532 16.973 17.043 16.973H23" stroke="#CC3300" stroke-width="1.5" stroke-linecap="round" stroke-linejoin="round"/>
<path d="M19.333 20.636L23 16.969L19.333 13.303" stroke="#CC3300" stroke-width="1.5" stroke-linecap="round" stroke-linejoin="round"/>
<path d="M11.491 14.742C11.3916 14.742 11.2962 14.7025 11.2259 14.6322C11.1555 14.5618 11.116 14.4665 11.116 14.367C11.116 14.2675 11.1555 14.1722 11.2259 14.1018C11.2962 14.0315 11.3916 13.992 11.491 13.992M11.491 14.742C11.5905 14.742 11.6859 14.7025 11.7562 14.6322C11.8265 14.5618 11.866 14.4665 11.866 14.367C11.866 14.2675 11.8265 14.1722 11.7562 14.1018C11.6859 14.0315 11.5905 13.992 11.491 13.992" stroke="#CC3300" stroke-width="1.5"/>
</svg>
