<svg width="24" height="24" viewBox="0 0 24 24" fill="none" xmlns="http://www.w3.org/2000/svg">
<path fill-rule="evenodd" clip-rule="evenodd" d="M12 22C17.523 22 22 17.523 22 12C22 6.477 17.523 2 12 2C6.477 2 2 6.477 2 12C2 17.523 6.477 22 12 22ZM17.954 12.75H14.905C14.7686 13.2777 14.491 13.7582 14.102 14.14L15.626 16.78C16.2629 16.2972 16.7969 15.692 17.1967 14.9999C17.5964 14.3079 17.8539 13.5429 17.954 12.75ZM14.328 17.532L12.803 14.892C12.2776 15.038 11.7224 15.038 11.197 14.892L9.672 17.532C10.4091 17.8415 11.2006 18.0006 12 18C12.825 18 13.612 17.833 14.328 17.532ZM8.374 16.781L9.898 14.141C9.50852 13.7591 9.23055 13.2781 9.094 12.75H6.046C6.14608 13.5429 6.40356 14.3079 6.80334 14.9999C7.20311 15.692 7.73711 16.2982 8.374 16.781ZM17.954 11.249H14.905C14.7686 10.7213 14.491 10.2408 14.102 9.859L15.626 7.219C16.2629 7.70183 16.7969 8.30704 17.1967 8.99908C17.5964 9.69113 17.8539 10.4561 17.954 11.249ZM14.328 6.467C13.5909 6.15781 12.7994 5.99904 12 6C11.175 6 10.388 6.167 9.672 6.468L11.197 9.108C11.7224 8.96205 12.2776 8.96205 12.803 9.108L14.328 6.467ZM9.898 9.86L8.374 7.22C7.73711 7.70283 7.20311 8.30804 6.80334 9.00008C6.40356 9.69213 6.14608 10.4571 6.046 11.25H9.095C9.233 10.715 9.515 10.237 9.898 9.86Z" fill="#CC3300"/>
</svg>
